<?xml version="1.0" encoding="utf-8"?>
<svg xmlns="http://www.w3.org/2000/svg" viewBox="0 0 30 30" width="60" height="60">
  <path d="M7 4.5C5.619 4.5 4.5 5.619 4.5 7C4.5 8.381 5.619 9.5 7 9.5C8.381 9.5 9.5 8.381 9.5 7C9.5 5.619 8.381 4.5 7 4.5 z M 15 4.5C13.619 4.5 12.5 5.619 12.5 7C12.5 8.381 13.619 9.5 15 9.5C16.381 9.5 17.5 8.381 17.5 7C17.5 5.619 16.381 4.5 15 4.5 z M 23 4.5C21.619 4.5 20.5 5.619 20.5 7C20.5 8.381 21.619 9.5 23 9.5C24.381 9.5 25.5 8.381 25.5 7C25.5 5.619 24.381 4.5 23 4.5 z M 7 12.5C5.619 12.5 4.5 13.619 4.5 15C4.5 16.381 5.619 17.5 7 17.5C8.381 17.5 9.5 16.381 9.5 15C9.5 13.619 8.381 12.5 7 12.5 z M 15 12.5C13.619 12.5 12.5 13.619 12.5 15C12.5 16.381 13.619 17.5 15 17.5C16.381 17.5 17.5 16.381 17.5 15C17.5 13.619 16.381 12.5 15 12.5 z M 23 12.5C21.619 12.5 20.5 13.619 20.5 15C20.5 16.381 21.619 17.5 23 17.5C24.381 17.5 25.5 16.381 25.5 15C25.5 13.619 24.381 12.5 23 12.5 z M 7 20.5C5.619 20.5 4.5 21.619 4.5 23C4.5 24.381 5.619 25.5 7 25.5C8.381 25.5 9.5 24.381 9.5 23C9.5 21.619 8.381 20.5 7 20.5 z M 15 20.5C13.619 20.5 12.5 21.619 12.5 23C12.5 24.381 13.619 25.5 15 25.5C16.381 25.5 17.5 24.381 17.5 23C17.5 21.619 16.381 20.5 15 20.5 z M 23 20.5C21.619 20.5 20.5 21.619 20.5 23C20.5 24.381 21.619 25.5 23 25.5C24.381 25.5 25.5 24.381 25.5 23C25.5 21.619 24.381 20.5 23 20.5 z" fill="#FFFFFF" />
</svg>